<svg width="12" height="10" viewBox="0 0 12 10" fill="none" xmlns="http://www.w3.org/2000/svg">
<path fill-rule="evenodd" clip-rule="evenodd" d="M10.0315 0.969094C10.2208 0.784608 10.4763 0.680781 10.7428 0.680058C11.0094 0.679335 11.2655 0.781774 11.4558 0.96523C11.6461 1.14869 11.7553 1.39842 11.7599 1.66043C11.7644 1.92245 11.6639 2.17569 11.48 2.36542L6.08089 9.00129C5.98809 9.09956 5.8761 9.17842 5.7516 9.23316C5.6271 9.28791 5.49265 9.3174 5.35629 9.31988C5.21993 9.32237 5.08447 9.29779 4.95799 9.24761C4.83151 9.19744 4.71662 9.12271 4.62019 9.02788L1.04285 5.50914C0.943192 5.41783 0.863256 5.30772 0.807815 5.18538C0.752374 5.06304 0.722562 4.93097 0.720159 4.79705C0.717756 4.66313 0.742811 4.53011 0.793828 4.40592C0.844846 4.28173 0.920781 4.16891 1.0171 4.0742C1.11343 3.97949 1.22816 3.90483 1.35447 3.85467C1.48078 3.80451 1.61607 3.77987 1.75227 3.78223C1.88847 3.7846 2.02279 3.81391 2.14721 3.86842C2.27164 3.92293 2.38363 4.00153 2.47649 4.09952L5.30861 6.88286L10.0058 0.99835C10.0142 0.988049 10.0232 0.978277 10.0329 0.969094H10.0315Z" fill="#6A5EF2"/>
</svg>
